<?xml version="1.0" encoding="utf-8"?>
<!-- Generator: Adobe Illustrator 25.0.0, SVG Export Plug-In . SVG Version: 6.00 Build 0)  -->
<svg version="1.1" id="Layer_1" xmlns="http://www.w3.org/2000/svg" xmlns:xlink="http://www.w3.org/1999/xlink" x="0px" y="0px"
	 viewBox="0 0 1920 1080" style="enable-background:new 0 0 1920 1080;" xml:space="preserve">
<style type="text/css">
	.st0{fill:url(#SVGID_1_);}
	.st1{fill:url(#SVGID_2_);}
	.st2{fill:url(#SVGID_3_);}
	.st3{fill:url(#SVGID_4_);}
	.st4{display:none;fill:url(#SVGID_5_);}
	.st5{opacity:0.36;}
	.st6{fill:#FFFFFF;}
	.st7{display:none;}
	.st8{display:inline;fill:#FF008C;}
	.st9{display:inline;fill:#FFFFFF;}
	.st10{display:inline;}
	.st11{font-family:'Roboto-Regular';}
	.st12{font-size:22px;}
	.st13{font-size:101.0338px;}
	.st14{font-size:29.957px;}
	.st15{display:inline;fill:none;}
	.st16{font-size:26px;}
	.st17{font-size:30px;}
	.st18{font-size:52.0531px;}
	.st19{fill:url(#SVGID_6_);}
	.st20{fill:url(#SVGID_7_);}
	.st21{fill:url(#SVGID_8_);}
	.st22{fill:url(#SVGID_9_);}
	.st23{fill:url(#SVGID_10_);}
</style>
<linearGradient id="SVGID_1_" gradientUnits="userSpaceOnUse" x1="1947.7314" y1="1109.2013" x2="59.7314" y2="21.201" gradientTransform="matrix(1 0 0 -1 0 1080)">
	<stop  offset="0" style="stop-color:#A6A6A6"/>
	<stop  offset="1" style="stop-color:#1F1F1F"/>
</linearGradient>
<rect class="st0" width="1920" height="1080"/>
<radialGradient id="SVGID_2_" cx="774.9946" cy="811.318" r="814.7679" gradientTransform="matrix(1 0 0 -1 0 1080)" gradientUnits="userSpaceOnUse">
	<stop  offset="0" style="stop-color:#A6A6A6;stop-opacity:0.8"/>
	<stop  offset="0.217" style="stop-color:#7D7D7D;stop-opacity:0.8434"/>
	<stop  offset="0.5972" style="stop-color:#3A3A3A;stop-opacity:0.9196"/>
	<stop  offset="0.867" style="stop-color:#101010;stop-opacity:0.9736"/>
	<stop  offset="0.999" style="stop-color:#000000"/>
</radialGradient>
<path class="st1" d="M829.8,437.3C674.9,168.9,331.8,77,63.5,231.9C41.1,244.9,19.9,259.1,0,274.5V1080h772.6
	C921,904.4,951.4,647.8,829.8,437.3z"/>
<radialGradient id="SVGID_3_" cx="1077.069" cy="-934.5961" r="301.5629" gradientTransform="matrix(0 1 1 0 1234.882 -790.227)" gradientUnits="userSpaceOnUse">
	<stop  offset="0.2074" style="stop-color:#4C4C4C"/>
	<stop  offset="0.3793" style="stop-color:#393939"/>
	<stop  offset="0.6806" style="stop-color:#1B1B1B"/>
	<stop  offset="0.8944" style="stop-color:#080808"/>
	<stop  offset="0.999" style="stop-color:#000000"/>
</radialGradient>
<path class="st2" d="M237.9,307.1c99.3-57.3,133.3-184.3,76-283.6c-4.8-8.3-10.1-16.1-15.8-23.5H0v286
	C65,340.9,160,352.1,237.9,307.1z"/>
<radialGradient id="SVGID_4_" cx="744.2646" cy="695.9076" r="709.2763" gradientTransform="matrix(1 0 0 -1 0 1080)" gradientUnits="userSpaceOnUse">
	<stop  offset="4.382622e-04" style="stop-color:#A6A6A6"/>
	<stop  offset="4.050000e-02" style="stop-color:#999999"/>
	<stop  offset="0.1992" style="stop-color:#6B6B6B"/>
	<stop  offset="0.3532" style="stop-color:#454545"/>
	<stop  offset="0.4991" style="stop-color:#272727"/>
	<stop  offset="0.6348" style="stop-color:#111111"/>
	<stop  offset="0.7564" style="stop-color:#050505"/>
	<stop  offset="0.8521" style="stop-color:#000000"/>
</radialGradient>
<path class="st3" d="M645.7,565.8C540,382.8,306,320.1,123,425.8c-50,28.9-91,67.3-122,111.6v439.3c29.2,41.8,65.6,76.1,106.4,102.3
	h413.7C692.1,969.4,748.3,743.5,645.7,565.8z"/>
<radialGradient id="SVGID_5_" cx="1344.89" cy="478.49" r="117.26" gradientTransform="matrix(1 0 0 -1 0 1080)" gradientUnits="userSpaceOnUse">
	<stop  offset="8.574695e-04" style="stop-color:#E600B2"/>
	<stop  offset="4.410000e-02" style="stop-color:#E818B9"/>
	<stop  offset="0.15" style="stop-color:#EE4EC9"/>
	<stop  offset="0.26" style="stop-color:#F27DD8"/>
	<stop  offset="0.3718" style="stop-color:#F6A5E4"/>
	<stop  offset="0.486" style="stop-color:#F9C6EE"/>
	<stop  offset="0.6032" style="stop-color:#FCDFF5"/>
	<stop  offset="0.7246" style="stop-color:#FEF1FB"/>
	<stop  offset="0.853" style="stop-color:#FFFCFE"/>
	<stop  offset="1" style="stop-color:#FFFFFF"/>
</radialGradient>
<circle class="st4" cx="1344.9" cy="601.5" r="117.3"/>
<g class="st5">
	<path class="st6" d="M1839.9,44c-15.4-15.4-31.4-30-47.9-43.7h-1.4c16.8,14,33.1,28.8,48.7,44.4c30,30,56.9,62.2,80.7,96.6v-1.6
		C1896.3,105.7,1869.6,73.7,1839.9,44z"/>
	<path class="st6" d="M849.2,1034.7c-64.3-64.3-114.8-139.2-150-222.5c-36.5-86.3-55-178-55-272.5s18.5-186.2,55-272.5
		c35.3-83.4,85.7-158.2,150-222.5c15.6-15.6,31.9-30.4,48.7-44.4h-1.5c-16.6,13.8-32.5,28.4-47.9,43.7
		c-64.4,64.4-114.9,139.4-150.2,222.8c-36.5,86.4-55.1,178.2-55.1,272.9s18.5,186.4,55.1,272.9c35.3,83.5,85.8,158.4,150.2,222.8
		c15.6,15.6,31.8,30.4,48.6,44.3h1.5C881.5,1065.6,865.1,1050.6,849.2,1034.7z"/>
	<path class="st6" d="M1839.9,1035.4c29.7-29.7,56.4-61.6,80.1-95.6v-1.6c-23.8,34.3-50.8,66.6-80.7,96.6
		c-15.8,15.8-32.3,30.8-49.4,45h1.4C1808.1,1065.8,1824.3,1051,1839.9,1035.4z"/>
	<path class="st6" d="M912.3,971.6c-56.1-56.1-100.1-121.4-130.9-194.2c-31.8-75.3-48-155.3-48-237.8s16.2-162.5,48-237.8
		c30.8-72.7,74.8-138.1,130.9-194.2c43.2-43.2,91.8-79.2,145-107.5h-2c-52.7,28.2-100.9,64-143.7,106.8
		c-56.2,56.2-100.3,121.6-131.1,194.5c-31.9,75.4-48.1,155.5-48.1,238.1s16.2,162.7,48.1,238.1c30.8,72.8,74.9,138.3,131.1,194.5
		c43.1,43.1,91.6,79.1,144.8,107.4h2C1004.7,1051.3,955.8,1015.1,912.3,971.6z"/>
	<path class="st6" d="M1776.8,972.3c56.2-56.2,100.3-121.6,131.1-194.5c4.3-10.2,8.3-20.5,12.1-30.8v-2.8
		c-4,11.2-8.3,22.2-12.9,33.2c-30.8,72.7-74.8,138.1-130.9,194.2c-43.4,43.4-92.4,79.7-146.1,108.1h2
		C1685.2,1051.4,1733.7,1015.4,1776.8,972.3z"/>
	<path class="st6" d="M1907.9,301.6c-30.8-72.9-74.9-138.3-131.1-194.5c-42.8-42.8-91-78.6-143.7-106.8h-2
		c53.2,28.3,101.9,64.3,145,107.5c56.1,56.1,100.1,121.4,130.9,194.2c4.6,11,8.9,22.1,12.9,33.2v-2.8
		C1916.3,322,1912.2,311.8,1907.9,301.6z"/>
	<path class="st6" d="M1713.7,170.2c-48-48-103.9-85.7-166.1-112c-64.4-27.2-132.9-41.1-203.4-41.1s-139,13.8-203.4,41.1
		c-62.2,26.3-118.1,64-166.1,112s-85.7,103.9-112,166.1c-27.2,64.4-41.1,132.9-41.1,203.4s13.8,139,41.1,203.4
		c26.3,62.2,64,118.1,112,166.1s103.9,85.7,166.1,112c64.4,27.2,132.9,41.1,203.4,41.1s139-13.8,203.4-41.1
		c62.2-26.3,118.1-64,166.1-112s85.7-103.9,112-166.1c27.2-64.4,41.1-132.9,41.1-203.4s-13.8-139-41.1-203.4
		C1799.4,274.1,1761.7,218.2,1713.7,170.2z M1824.9,742.8c-26.3,62.1-63.9,117.9-111.8,165.8c-47.9,47.9-103.7,85.5-165.8,111.8
		c-64.3,27.2-132.6,41-203,41s-138.7-13.8-203-41c-62.1-26.3-117.9-63.9-165.8-111.8c-47.9-47.9-85.5-103.7-111.8-165.8
		c-27.2-64.3-41-132.6-41-203s13.8-138.7,41-203c26.3-62.1,63.9-117.9,111.8-165.8c47.9-47.9,103.7-85.5,165.8-111.8
		c64.3-27.2,132.6-41,203-41s138.7,13.8,203,41c62.1,26.3,117.9,63.9,165.8,111.8c47.9,47.9,85.5,103.7,111.8,165.8
		c27.2,64.3,41,132.6,41,203S1852.1,678.4,1824.9,742.8z"/>
	<path class="st6" d="M1650.7,233.3c-39.8-39.8-86.1-71-137.7-92.9c-53.4-22.6-110.2-34.1-168.7-34.1s-115.2,11.5-168.7,34.1
		c-51.6,21.8-97.9,53.1-137.7,92.9c-39.8,39.8-71,86.1-92.9,137.7c-22.6,53.4-34,110.2-34,168.7s11.5,115.2,34,168.7
		c21.8,51.6,53.1,97.9,92.9,137.7c39.8,39.8,86.1,71,137.7,92.9c53.4,22.6,110.2,34,168.7,34s115.2-11.5,168.7-34
		c51.6-21.8,97.9-53.1,137.7-92.9c39.8-39.8,71-86.1,92.9-137.7c22.6-53.4,34.1-110.2,34.1-168.7s-11.5-115.2-34.1-168.7
		C1721.7,319.4,1690.4,273.1,1650.7,233.3z M1742.7,708c-21.8,51.5-53,97.7-92.7,137.4c-39.7,39.7-85.9,70.9-137.4,92.7
		c-53.3,22.5-109.9,34-168.3,34c-58.4,0-115-11.4-168.3-34c-51.5-21.8-97.7-53-137.4-92.7c-39.7-39.7-70.9-86-92.7-137.4
		c-22.5-53.3-34-109.9-34-168.3s11.4-115,34-168.3c21.8-51.5,53-97.7,92.7-137.4s85.9-70.9,137.4-92.7c53.3-22.6,109.9-34,168.3-34
		c58.4,0,115,11.4,168.3,34c51.5,21.8,97.7,53,137.4,92.7s70.9,86,92.7,137.4c22.6,53.3,34,109.9,34,168.3S1765.2,654.7,1742.7,708z
		"/>
	<path class="st6" d="M1587.6,296.4c-31.6-31.6-68.4-56.4-109.4-73.8c-42.4-17.9-87.5-27-133.9-27c-46.4,0-91.5,9.1-133.9,27
		c-41,17.3-77.8,42.1-109.4,73.8c-31.6,31.6-56.4,68.4-73.8,109.4c-17.9,42.4-27,87.5-27,133.9s9.1,91.5,27,133.9
		c17.3,41,42.1,77.8,73.8,109.4c31.6,31.6,68.4,56.4,109.4,73.8c42.4,17.9,87.5,27,133.9,27s91.5-9.1,133.9-27
		c41-17.3,77.8-42.1,109.4-73.8c31.6-31.6,56.4-68.4,73.8-109.4c17.9-42.4,27-87.5,27-133.9s-9.1-91.5-27-133.9
		C1644,364.8,1619.2,328,1587.6,296.4z M1660.4,673.3c-17.3,40.9-42,77.6-73.5,109.1c-31.5,31.5-68.2,56.3-109.1,73.5
		c-42.3,17.9-87.2,27-133.6,27s-91.3-9.1-133.6-27c-40.9-17.3-77.6-42-109.1-73.5c-31.5-31.5-56.3-68.2-73.5-109.1
		c-17.9-42.3-27-87.2-27-133.6s9.1-91.3,27-133.6c17.3-40.9,42-77.6,73.5-109.1c31.5-31.5,68.2-56.3,109.1-73.6
		c42.3-17.9,87.2-27,133.6-27s91.3,9.1,133.6,27c40.9,17.3,77.6,42,109.1,73.6c31.5,31.5,56.3,68.2,73.5,109.1
		c17.9,42.3,27,87.2,27,133.6S1678.3,631,1660.4,673.3z"/>
	<path class="st6" d="M1344.2,284.8c-68.1,0-132.1,26.5-180.2,74.6s-74.7,112.1-74.7,180.2s26.5,132.1,74.7,180.2
		s112.2,74.7,180.2,74.7s132.1-26.5,180.2-74.7s74.7-112.2,74.7-180.2s-26.5-132.1-74.7-180.2S1412.3,284.8,1344.2,284.8z
		 M1523.8,719.3c-48,48-111.7,74.4-179.6,74.4c-67.8,0-131.6-26.4-179.6-74.4c-48-48-74.4-111.7-74.4-179.6s26.4-131.6,74.4-179.6
		c48-48,111.7-74.4,179.6-74.4c67.8,0,131.6,26.4,179.6,74.4c48,48,74.4,111.7,74.4,179.6S1571.8,671.3,1523.8,719.3z"/>
	<path class="st6" d="M1344.2,374c-91.3,0-165.7,74.3-165.7,165.7s74.3,165.7,165.7,165.7c91.3,0,165.7-74.3,165.7-165.7
		S1435.6,374,1344.2,374z M1344.2,704.4c-90.8,0-164.7-73.9-164.7-164.7S1253.4,375,1344.2,375S1509,448.9,1509,539.7
		S1435.1,704.4,1344.2,704.4z"/>
	<path class="st6" d="M1344.2,463.3c-42.2,0-76.4,34.3-76.4,76.4s34.3,76.4,76.4,76.4c42.2,0,76.4-34.3,76.4-76.4
		S1386.4,463.3,1344.2,463.3z M1344.2,615.2c-41.6,0-75.5-33.9-75.5-75.5s33.9-75.5,75.5-75.5c41.6,0,75.5,33.9,75.5,75.5
		S1385.9,615.2,1344.2,615.2z"/>
</g>
<g class="st7">
	<circle class="st8" cx="1344.9" cy="538.7" r="83.4"/>
	<polygon class="st9" points="1372.7,538.7 1325,567.5 1325,509.9 	"/>
</g>
<g class="st7">
	<g class="st10">
		<g>
			<g>
				<g>
					<g>
						<g>
							<path class="st6" d="M198.6,915.1c0,17.2-14,31.1-31.1,31.1s-31.1-14-31.1-31.1s14-31.1,31.1-31.1S198.6,898,198.6,915.1z
								 M195.4,915.1c0-15.4-12.5-27.8-27.9-27.8s-27.9,12.5-27.9,27.8s12.5,27.8,27.9,27.8C182.9,943,195.4,930.5,195.4,915.1z"/>
						</g>
						<g>
							<polygon class="st6" points="159.1,915.1 162.7,911.5 162.7,911.5 172.4,901.8 176,905.5 166.4,915.1 176,924.8 172.4,928.4 
								162.7,918.8 162.7,918.8 							"/>
						</g>
					</g>
				</g>
			</g>
		</g>
		<g>
			<g>
				<g>
					<g>
						<g>
							<path class="st6" d="M1006.4,915.1c0-17.2,14-31.1,31.1-31.1s31.1,14,31.1,31.1s-14,31.1-31.1,31.1
								S1006.4,932.3,1006.4,915.1z M1009.7,915.1c0,15.4,12.5,27.8,27.9,27.8c15.4,0,27.8-12.5,27.8-27.8s-12.5-27.8-27.8-27.8
								C1022.2,887.3,1009.7,899.8,1009.7,915.1z"/>
						</g>
						<g>
							<polygon class="st6" points="1046,915.1 1042.3,918.8 1042.3,918.8 1032.7,928.4 1029.1,924.8 1038.7,915.1 1029.1,905.5 
								1032.7,901.8 1042.3,911.5 1042.3,911.5 							"/>
						</g>
					</g>
				</g>
			</g>
		</g>
	</g>
	<g class="st10">
		<rect x="469.5" y="913" class="st6" width="266" height="2"/>
		<text transform="matrix(1 0 0 1 420.8997 920.5)" class="st6 st11 st12">01</text>
		<text transform="matrix(1 0 0 1 761.8994 920.5)" class="st6 st11 st12">06</text>
	</g>
</g>
<g class="st7">
	<text transform="matrix(1 0 0 1 148.7607 440.2104)" class="st9 st11 st13">Creative Abstract </text>
	<text transform="matrix(1 0 0 1 148.7607 557.7704)" class="st9 st11 st13">Background</text>
</g>
<g class="st7">
	<text transform="matrix(1 0 0 1 1469.7607 530.4072)" class="st9 st11 st14">Editable Shape </text>
	<text transform="matrix(1 0 0 1 1469.7607 567.8772)" class="st9 st11 st14">and Vectors</text>
</g>
<g class="st7">
	<rect x="136.4" y="682.5" class="st15" width="748.6" height="123.5"/>
	<text transform="matrix(1 0 0 1 136.4094 700.9333)" class="st9 st11 st16">Consectetuer adipiscing elit, sed diam nonummy nibh euismod tinci</text>
	<text transform="matrix(1 0 0 1 872.6895 700.9333)" class="st9 st11 st16">-</text>
	<text transform="matrix(1 0 0 1 136.4094 740.9333)" class="st9 st11 st16">dunt ut laoreet dolore magna aliquam erat volutpat. Ut wisi enim ad </text>
	<text transform="matrix(1 0 0 1 136.4094 780.9333)" class="st9 st11 st16">minim veniam, quis nostrud exerci tation.</text>
</g>
<g class="st7">
	<text transform="matrix(1 0 0 1 821.8872 123.2263)" class="st9 st11 st17">Home</text>
	<text transform="matrix(1 0 0 1 1013.8872 123.2263)" class="st9 st11 st17">Pricing</text>
	<text transform="matrix(1 0 0 1 1237.8872 123.2263)" class="st9 st11 st17">Contact</text>
	<text transform="matrix(1 0 0 1 1469.8872 123.2263)" class="st9 st11 st17">About Us</text>
	<g class="st10">
		<g>
			<rect x="1739" y="97.6" class="st6" width="26.9" height="3.1"/>
			<rect x="1746" y="107.3" class="st6" width="20" height="3.1"/>
			<rect x="1739" y="117" class="st6" width="26.9" height="3.1"/>
		</g>
	</g>
	<text transform="matrix(1 0 0 1 148.761 129.6702)" class="st9 st11 st18">awes:me</text>
</g>
<radialGradient id="SVGID_6_" cx="631.2857" cy="935.8571" r="182.4032" gradientTransform="matrix(1 0 0 -1 0 1080)" gradientUnits="userSpaceOnUse">
	<stop  offset="0" style="stop-color:#A6A6A6"/>
	<stop  offset="1" style="stop-color:#1F1F1F"/>
</radialGradient>
<circle class="st19" cx="577" cy="193" r="95"/>
<radialGradient id="SVGID_7_" cx="1759.5" cy="847.5" r="235.2042" gradientTransform="matrix(1 0 0 -1 0 1080)" gradientUnits="userSpaceOnUse">
	<stop  offset="0" style="stop-color:#A6A6A6"/>
	<stop  offset="1" style="stop-color:#1F1F1F"/>
</radialGradient>
<circle class="st20" cx="1689.5" cy="295.5" r="122.5"/>
<radialGradient id="SVGID_8_" cx="1722.7142" cy="182.3428" r="113.282" gradientTransform="matrix(1 0 0 -1 0 1080)" gradientUnits="userSpaceOnUse">
	<stop  offset="0" style="stop-color:#A6A6A6"/>
	<stop  offset="1" style="stop-color:#1F1F1F"/>
</radialGradient>
<circle class="st21" cx="1689" cy="928" r="59"/>
<radialGradient id="SVGID_9_" cx="1060.3572" cy="390.6714" r="56.641" gradientTransform="matrix(1 0 0 -1 0 1080)" gradientUnits="userSpaceOnUse">
	<stop  offset="0" style="stop-color:#A6A6A6"/>
	<stop  offset="1" style="stop-color:#1F1F1F"/>
</radialGradient>
<circle class="st22" cx="1043.5" cy="704.5" r="29.5"/>
<radialGradient id="SVGID_10_" cx="1023.5" cy="830.5" r="33.6006" gradientTransform="matrix(1 0 0 -1 0 1080)" gradientUnits="userSpaceOnUse">
	<stop  offset="0" style="stop-color:#A6A6A6"/>
	<stop  offset="1" style="stop-color:#1F1F1F"/>
</radialGradient>
<circle class="st23" cx="1013.5" cy="258.5" r="17.5"/>
</svg>
