<?xml version="1.0" encoding="utf-8"?>
<!-- Generator: Adobe Illustrator 27.8.1, SVG Export Plug-In . SVG Version: 6.00 Build 0)  -->
<svg version="1.1" xmlns="http://www.w3.org/2000/svg" xmlns:xlink="http://www.w3.org/1999/xlink" x="0px" y="0px"
	 viewBox="0 0 1093.81 906.89" style="enable-background:new 0 0 1093.81 906.89;" xml:space="preserve">
<style type="text/css">
	.st0{fill:#C026D3;stroke:#000000;stroke-miterlimit:10;}
	.st1{fill:#FFFFFF;}
	.st2{fill:#C026D3;}
</style>
<g id="Layer_5">
	<rect x="508.41" y="412.22" class="st0" width="88" height="33"/>
</g>
<g id="Layer_6">
	<path class="st0" d="M213.06,318.98c0,0,48.97,82.09,73.54,93.25c5.42,2.46,23.81,0,23.81,0v32.92c0,0-32.57,4.32-42.23,0.06
		c-26.74-11.81-85.22-91.19-85.22-91.19L213.06,318.98z"/>
</g>
<g id="Layer_7">
	<path class="st0" d="M883.76,314.59c0,0-48.97,82.09-73.54,93.25c-5.42,2.46-23.81,0-23.81,0v32.92c0,0,32.57,4.32,42.23,0.06
		c26.74-11.81,85.22-91.19,85.22-91.19L883.76,314.59z"/>
	<path class="st0" d="M784.17,656.78c28.93-33.09-2.16-44.64-21.15-27.85c-84.87,75.02-148.21,90.3-246.59,79.51
		c-24.63-2.7-32.34,22.01-5.97,30.1C572.36,757.52,706,746.17,784.17,656.78z"/>
</g>
<g id="Layer_9">
</g>
<g id="Layer_8">
	<g>
		<path class="st0" d="M614.69,310.76c-19.12,13.41-4.54,23.31,7.39,17.05c53.3-27.97,87.92-27.83,137.33-9.81
			c12.37,4.51,19.48-7.26,6.89-14.78C736.76,285.59,666.35,274.52,614.69,310.76z"/>
		<path class="st0" d="M489.63,310.76c19.12,13.41,4.54,23.31-7.39,17.05c-53.3-27.97-87.92-27.83-137.33-9.81
			c-12.37,4.51-19.48-7.26-6.89-14.78C367.57,285.59,437.97,274.52,489.63,310.76z"/>
	</g>
</g>
<g id="Layer_1">
	<g>
		<g>
			<path class="st0" d="M312.41,387.22c10.36-19.52,43.98-26.91,67-29c66-6,144-3,136,75c-4.67,45.51-35.07,81.15-71,92
				c-6.06,1.83-48.85,12.41-88-12c-33.51-20.89-42-47-45-57C306.99,441.47,301.73,407.36,312.41,387.22z"/>
			<path class="st1" d="M333.41,474.28c0,0-4.64-3.11-8.71-15.01c-9.06-26.48,11.19-90.51,11.25-90.54
				c6.16-2.72,16.16-6.23,27.07-7.79C363.02,360.94,322.84,431.43,333.41,474.28z"/>
			<path class="st1" d="M347.65,471.41c-7.23-49.86,49.44-114.03,49.44-114.03c10.64-0.76,17.97-0.97,28.93-0.58
				c0,0-83.26,67.26-72.17,131.45C353.86,488.26,348.86,479.77,347.65,471.41z"/>
		</g>
		<g>
			<path class="st0" d="M789.68,387.28c-10.36-19.52-43.98-26.91-67-29c-66-6-144-3-136,75c4.67,45.51,35.07,81.15,71,92
				c6.06,1.83,48.85,12.41,88-12c33.51-20.89,42-47,45-57C795.11,441.53,800.36,407.42,789.68,387.28z"/>
			<path class="st1" d="M768.35,473.73c0,0,4.64-3.11,8.71-15.01c9.06-26.48-11.29-89.99-11.35-90.02
				c-6.12-2.67-15.98-5.78-26.8-7.72C738.91,360.99,778.92,430.88,768.35,473.73z"/>
			<path class="st1" d="M752.26,471.05c7.23-49.86-49.67-113.73-49.67-113.73c-10.64-0.7-17.76-0.71-28.66-0.37
				c0,0,83.22,66.76,72.13,130.94C746.05,487.89,751.04,479.41,752.26,471.05z"/>
		</g>
	</g>
</g>
<g id="Layer_11">
	<g>
		<path class="st2" d="M267.65,906.72c-47.55,0-83.91-13.31-109.04-39.91c-25.13-26.62-37.7-62.43-37.7-107.46v-176.7
			c0-28.02-5.3-49.73-15.89-65.1c-10.6-15.37-25.13-26.32-43.58-32.82c-18.46-6.49-38.97-10.07-61.53-10.76V430.9
			c22.56-0.69,43.06-4.28,61.53-10.78c18.45-6.49,32.98-17.43,43.58-32.8c10.59-15.37,15.89-36.74,15.89-64.08V146.08
			c0-46.4,12.57-82.39,37.7-107.98S220.1-0.28,267.65-0.28h67.26v44H304.4c-29.87,0-51.24,9.03-64.14,27.08
			s-19.34,44.76-19.34,80.15v174.62c0,33.37-9.35,61.12-28,83.24s-46.99,36.25-85,42.37v1.02c38.69,6.81,67.19,21.12,85.51,42.9
			s27.49,49.7,27.49,83.73V755.5c0,34.72,6.45,61.26,19.34,79.65c12.9,18.37,34.27,27.58,64.14,27.58h30.52v44H267.65z"/>
	</g>
	<g>
		<path class="st2" d="M758.91,906.72v-44h30.52c29.87,0,51.24-9.2,64.14-27.58c12.9-18.39,19.34-44.94,19.34-79.66V578.8
			c0-34.03,9.17-61.95,27.49-83.73c18.32-21.78,46.82-36.09,85.51-42.91v-1.02c-38-6.12-66.34-20.25-85-42.38s-28-49.88-28-83.25
			V151.19c0-35.47-6.45-62.24-19.34-80.33s-34.26-27.14-64.12-27.14h-30.54v-44h66.35c47.85,0,84.43,12.77,109.72,38.3
			s37.93,61.45,37.93,107.75v177.7c0,27.23,5.3,48.52,15.89,63.83c10.6,15.31,25.13,26.2,43.58,32.67
			c18.46,6.47,38.97,10.05,61.53,10.73v42.89c-22.56,0.69-43.06,4.25-61.53,10.72c-18.45,6.47-32.98,17.38-43.58,32.69
			c-10.59,15.31-15.89,36.94-15.89,64.84v177.5c0,45.03-12.57,80.84-37.7,107.46c-25.13,26.6-61.49,39.91-109.04,39.91H758.91z"/>
	</g>
</g>
</svg>
