<?xml version="1.0" encoding="utf-8"?>
<!-- Generator: Adobe Illustrator 25.0.0, SVG Export Plug-In . SVG Version: 6.00 Build 0)  -->
<svg version="1.1" id="Layer_1" xmlns="http://www.w3.org/2000/svg" xmlns:xlink="http://www.w3.org/1999/xlink" x="0px" y="0px"
	 viewBox="0 0 1157.59 1309.24" style="enable-background:new 0 0 1157.59 1309.24;" xml:space="preserve">
<style type="text/css">
	.st0{display:none;}
	.st1{fill:url(#SVGID_1_);}
	.st2{fill:url(#SVGID_2_);}
	.st3{fill:url(#SVGID_3_);}
	.st4{fill:url(#SVGID_4_);}
	.st5{fill:url(#SVGID_5_);}
	.st6{fill:url(#SVGID_6_);}
</style>
<g class="st0">
	
		<text transform="matrix(1 0 0 1 1297.0112 726.1302)" style="display:inline;fill:#858585; font-family:'Aller-Bold'; font-size:339.9795px; letter-spacing:40;">ENHANCE</text>
	
		<text transform="matrix(1 0 0 1 1314.7095 872.515)" style="display:inline;fill:#ABABAB; font-family:'Aller-Bold'; font-size:133.2833px; letter-spacing:77;">INTELLIGENCE</text>
</g>
<g>
	<radialGradient id="SVGID_1_" cx="545.8117" cy="399.6178" r="677.0669" gradientUnits="userSpaceOnUse">
		<stop  offset="0" style="stop-color:#FFFF75"/>
		<stop  offset="0.4293" style="stop-color:#FF4F97"/>
		<stop  offset="0.6263" style="stop-color:#D93B92"/>
		<stop  offset="0.9945" style="stop-color:#450284"/>
	</radialGradient>
	<path class="st1" d="M1157.59,374.22c0-14.34-9.82-26.38-23.1-29.77l-29.66-132.93c6.48-5.63,10.59-13.93,10.59-23.2
		c0-16.97-13.75-30.72-30.72-30.72c-4.48,0-8.74,0.97-12.58,2.7L907.49,21.53c-2.14-1.8-5.14-2.17-7.64-0.93L777.92,80.81
		l-104.07-32.5c-3.71-1.16-7.65,0.91-8.81,4.61c-1.16,3.71,0.91,7.65,4.61,8.81l99.89,31.19l12.3,259.77
		c-5.36,1.67-10.09,4.77-13.75,8.86L591.49,235.2c-3.16-2.26-7.55-1.53-9.81,1.63c-2.26,3.16-1.53,7.55,1.63,9.81L761.35,374
		c-0.69,2.56-1.07,5.25-1.07,8.03c0,10.33,5.11,19.46,12.92,25.03l-96.99,211.99c-9.56,2.01-37.3,7.93-64.87,14.55
		c-19.98,4.79-35.99,9.02-47.59,12.56c-22.05,6.73-26.15,10.18-27.02,15.38c-1.59,9.55,14.77,102.09,21.89,141.44
		c0.4,2.21,1.83,4.09,3.84,5.07L832.2,939.4c-0.04,0.63-0.06,1.25-0.06,1.89c0,16.29,12.68,29.61,28.7,30.65l35.99,245.1
		L562.41,930.2c-2.95-2.53-7.38-2.19-9.91,0.76c-2.53,2.95-2.19,7.38,0.76,9.91l346.69,297.36l0.74,5.06
		c0.51,3.5,3.51,6.01,6.95,6.01c0.34,0,0.68-0.02,1.03-0.07c1.07-0.16,2.04-0.55,2.88-1.12c1.16,0.78,2.52,1.19,3.91,1.19
		c0.59,0,1.18-0.07,1.76-0.22l131.17-33.86c4.55,11.28,15.59,19.24,28.5,19.24c16.97,0,30.72-13.76,30.72-30.72
		c0-16.97-13.75-30.72-30.72-30.72c-3.83,0-7.5,0.71-10.88,1.99L886.68,960.69c4.31-5.29,6.9-12.04,6.9-19.4
		c0-13.29-8.44-24.61-20.25-28.89l5.16-74.78c16.24-0.82,29.15-14.24,29.15-30.68c0-5.3-1.35-10.3-3.71-14.65l168.38-156
		c2.92,0.92,6.03,1.42,9.25,1.42c16.97,0,30.72-13.76,30.72-30.72c0-10.3-5.07-19.4-12.85-24.98l36.13-178.32
		C1148.3,399.93,1157.59,388.17,1157.59,374.22z M1120.04,344.27c-13.68,3.11-23.89,15.33-23.89,29.95c0,6.31,1.9,12.17,5.16,17.05
		l-86.26,65.17c-2.3-2.49-5.01-4.59-8.02-6.21l80.98-231.38c1.33-0.14,2.63-0.37,3.9-0.68L1120.04,344.27z M1059.83,628.7
		L894.57,781.8c-0.94-0.67-1.92-1.28-2.94-1.84l95.35-272.42c1.8,0.33,3.65,0.51,5.55,0.51c3.43,0,6.72-0.57,9.8-1.61l55.92,80.56
		c-4.61,5.37-7.4,12.35-7.4,19.98C1050.84,615.46,1054.28,623.14,1059.83,628.7z M855.4,911.49L752.3,703.85l95.74,92.62
		c-1.19,3.27-1.83,6.8-1.83,10.47c0,12.58,7.56,23.38,18.38,28.13l-5.22,75.7C858.01,910.93,856.69,911.16,855.4,911.49z
		 M876.92,776.22c-8.13,0-15.51,3.16-21.01,8.31L733.6,666.2l-13.37-26.93c-1.73-3.48-5.94-4.9-9.42-3.17
		c-1.89,0.94-3.16,2.61-3.66,4.5l-17.56-16.99l1.09-2.39c1.26,1.05,2.86,1.64,4.51,1.64c0.97,0,1.96-0.2,2.91-0.63l272.1-123.81
		c1.19,1.26,2.48,2.42,3.86,3.46l-96.03,274.37C877.66,776.24,877.29,776.22,876.92,776.22z M820.8,374.53l244.65-162.26
		c2.48,2,5.28,3.61,8.3,4.77L993.4,446.63c-0.29-0.01-0.58-0.02-0.87-0.02c-10.98,0-20.6,5.76-26.04,14.42l-146.52-68.75
		c1.13-3.2,1.75-6.65,1.75-10.24C821.73,379.45,821.4,376.93,820.8,374.53z M901.94,35.24l158.79,133.86c0,0.01-0.01,0.01-0.02,0.02
		L797.37,86.88L901.94,35.24z M1054.64,181.95c-0.44,2.06-0.67,4.19-0.67,6.38c0,4.58,1.01,8.92,2.81,12.83l-242.5,160.83
		c-4.63-5.37-11.07-9.12-18.39-10.29L783.84,97.39L1054.64,181.95z M791,412.76c8.26,0,15.75-3.26,21.27-8.57l149.67,70.23
		c-0.09,0.96-0.14,1.93-0.14,2.91c0,3.09,0.46,6.07,1.31,8.88L697.07,607.26l89.16-194.87C787.79,412.63,789.38,412.76,791,412.76z
		 M571.82,796.98c-8.26-45.88-20.27-116.3-21.16-131.2c11.95-6.4,72.28-21.25,128.26-32.93l43.17,41.77l120.82,243.32
		c-2.6,2.22-4.82,4.87-6.56,7.84L571.82,796.98z M913.09,1230.98l-38.38-261.34c0.28-0.12,0.55-0.24,0.83-0.37l178.75,213.64
		c-4.52,4.9-7.46,11.28-8.03,18.33l-129.02,33.3L913.09,1230.98z M1081.57,576.27c-4.25,0-8.3,0.86-11.98,2.42l-55.3-79.67
		c5.54-5.56,8.96-13.22,8.96-21.69c0-2.96-0.43-5.82-1.21-8.53l89.75-67.81c2.85,1.61,5.98,2.78,9.3,3.41l-34.89,172.22
		C1084.68,576.38,1083.14,576.27,1081.57,576.27z"/>
	
		<radialGradient id="SVGID_2_" cx="-276.795" cy="505.9827" r="2185.3811" gradientTransform="matrix(0.1108 0.9938 -0.7274 0.0811 121.9134 740.0572)" gradientUnits="userSpaceOnUse">
		<stop  offset="0" style="stop-color:#FFFF75"/>
		<stop  offset="0.4293" style="stop-color:#FF4F97"/>
		<stop  offset="0.6263" style="stop-color:#D93B92"/>
		<stop  offset="0.9945" style="stop-color:#450284"/>
	</radialGradient>
	<path class="st2" d="M431.18,1031.38c-66.98-37.71-299.94,56.24-370.23-39.05c-22.88-31.02,15.62-92.95,15.62-136.69
		c0-21.45-8.07-18.23-13.28-42.18c-5.21-23.95,31.76-40.62,32.8-43.74c1.04-3.12-29.72-17.54-33.06-26.3
		c-7.55-19.79,18.23-22.13,14.46-53.91c-5.08-42.91-79.03-11.96-77.47-67.42c0.73-25.87,107.01-121.07,132.78-151.53
		c25.77-30.46-7.38-59.82,45.44-221.56C253.23,19.37,775.07-23.31,890.56,10c64.56,18.62-70.4,37.21-228.17,188.74
		c-174.64,167.72,31.24,307.75,93.73,379.61c62.49,71.86-115.6,145.28-171.84,243.7c-56.24,98.42,383.26,364.08,403.04,392.1
		c25.73,36.45-273.66,125.45-399.02,84.57C439.68,1250.25,731.23,1200.31,431.18,1031.38z"/>
	<radialGradient id="SVGID_3_" cx="1094.4137" cy="28.7418" r="2010.5659" gradientUnits="userSpaceOnUse">
		<stop  offset="0" style="stop-color:#FFFBFF"/>
		<stop  offset="0.2674" style="stop-color:#FFE472"/>
		<stop  offset="0.7326" style="stop-color:#FD524D"/>
		<stop  offset="1" style="stop-color:#AB2573"/>
	</radialGradient>
	<path class="st3" d="M584.28,822.05c56.24-98.42,234.33-171.84,171.84-243.7c-62.49-71.86-268.37-211.88-93.73-379.61
		C790.55,75.65,903.66,40.28,907,21.36c0.77-4.37-313.63,155.82-325.85,290.38c-12.5,137.73,162.47,241.61,162.47,296.29
		c0,54.68-182.77,159.34-183.55,224.17c-0.89,73.45,116.38,174.96,207.31,218.7C658.25,967.09,555.35,872.66,584.28,822.05z"/>
	<radialGradient id="SVGID_4_" cx="162.268" cy="0.5302" r="470.3738" gradientUnits="userSpaceOnUse">
		<stop  offset="0" style="stop-color:#FFFFFF"/>
		<stop  offset="0.8582" style="stop-color:#FFFBFF;stop-opacity:0"/>
	</radialGradient>
	<path class="st4" d="M600.94,42c0,0-279.89,46.61-365.03,162.99c-64.8,88.58-56.5,183.29-27.34,184.34
		c29.16,1.04,151.94-31.56,314.78-132.78C677.49,160.73,711.33,34.71,600.94,42z"/>
	<radialGradient id="SVGID_5_" cx="-50.0869" cy="586.1589" r="238.8063" gradientUnits="userSpaceOnUse">
		<stop  offset="0" style="stop-color:#FFFFFF"/>
		<stop  offset="0.8582" style="stop-color:#FFFBFF;stop-opacity:0"/>
	</radialGradient>
	<path class="st5" d="M135.41,480.97c0,0-131.22,121.85-118.2,134.87c13.02,13.02,52.07,14.06,85.92-28.64
		C136.98,544.5,167.7,455.98,135.41,480.97z"/>
	<radialGradient id="SVGID_6_" cx="385.5446" cy="117.6179" r="397.8493" gradientUnits="userSpaceOnUse">
		<stop  offset="0" style="stop-color:#FFFFFF"/>
		<stop  offset="0.8582" style="stop-color:#FFFBFF;stop-opacity:0"/>
	</radialGradient>
	<path class="st6" d="M570.32,385.65c-2.69,1.11-5.15,2.55-7.34,4.28L450.45,273.62c6.43-7.95,8.76-18.92,5.2-29.3
		c-0.1-0.28-0.2-0.55-0.3-0.82L646.49,93.05c2.07,2.49,4.51,4.61,7.2,6.31l-15.96,61.11c5.73-4.3,11.66-8.4,17.75-12.33l11.54-44.17
		c4.28,0.43,8.71-0.02,13.05-1.5c2.07-0.71,4.01-1.62,5.82-2.7l16.06,21.9c4.22-2.19,8.45-4.35,12.68-6.49l-18.58-25.33
		c0-0.01,0.01-0.01,0.01-0.02l31.45,18.86c4.98-2.5,9.94-4.99,14.85-7.49l-41.66-24.99c0.39-4.19-0.07-8.53-1.53-12.77
		c-5.5-16.05-22.97-24.6-39.02-19.1c-8.76,3-15.29,9.58-18.51,17.54L506.26,76.9c-7.51-11.47-22.09-16.85-35.65-12.21
		c-13.19,4.52-21.31,17.12-20.74,30.38L292.9,187.07c-7.79-5.55-18.05-7.39-27.79-4.05c-16.05,5.5-24.6,22.97-19.1,39.02
		c1.04,3.05,2.52,5.83,4.34,8.29l-82.35,185.85c3.84,2.91,7.68,5.82,11.5,8.76l82.09-185.26c7.06,3.45,15.43,4.21,23.45,1.46
		c7.22-2.47,12.92-7.38,16.51-13.48l94.34,26.78c0.02,3.25,0.55,6.55,1.66,9.79c0.61,1.79,1.39,3.49,2.28,5.08l-208.99,164.5
		c3.76,3.01,7.48,6.05,11.12,9.14L409.34,279.7c1.43,0.97,2.95,1.81,4.52,2.53l-28.92,297.54c-0.1,1.03,0.03,2.03,0.34,2.95
		c0.53,1.56,1.61,2.88,3.02,3.74l-1.9,1.8l-21.76-11.1c1.63-1.08,2.8-2.83,3.07-4.92c0.5-3.85-2.2-7.38-6.05-7.89l-24.25-3.19
		c6.17,3.63,12.83,7.09,17.16,11.35c5.76,7.54,16.51,8.08,22.59,16.57c0.97,2.84,5.4,3.43,8.57,3.41c0.03,3.16,2.86,2.19,3.84,5.03
		c1.34,1.32,4.46,1.28,5.61,1.8l168.97-160.35c7.08,5.07,16.22,7.07,25.15,4.89c-0.88-2.38-1.72-4.79-2.49-7.25
		C581.5,419.75,575.51,402.78,570.32,385.65z M472.73,123.46c5.67,1.5,11.83,1.4,17.8-0.64c13.83-4.74,22.08-18.37,20.59-32.31
		l128.39-14.26c0.12,1.3,0.33,2.6,0.62,3.91L447.51,231.77c-2.5-2.32-5.37-4.2-8.47-5.58L472.73,123.46z M399.02,240.72l-93.3-26.49
		c0.28-3.99-0.21-8.1-1.59-12.12c-0.51-1.49-1.12-2.91-1.83-4.26l151.6-88.84c1.68,2.94,3.8,5.52,6.24,7.69L425.1,223.59
		c-2.82,0.14-5.66,0.66-8.47,1.62C408.62,227.96,402.48,233.68,399.02,240.72z M399.45,575.89l28.27-290.91
		c2.94-0.11,5.9-0.64,8.82-1.64c0.93-0.32,1.83-0.68,2.7-1.08l114.95,118.82c-3.23,6.94-3.88,15.09-1.21,22.9
		c0.53,1.53,1.16,3,1.9,4.39L399.45,575.89z"/>
</g>
</svg>
