<?xml version="1.0" encoding="utf-8"?>
<!-- Generator: Adobe Illustrator 27.8.1, SVG Export Plug-In . SVG Version: 6.00 Build 0)  -->
<svg version="1.1" xmlns="http://www.w3.org/2000/svg" xmlns:xlink="http://www.w3.org/1999/xlink" x="0px" y="0px"
	 viewBox="0 0 1116.15 929.15" style="enable-background:new 0 0 1116.15 929.15;" xml:space="preserve">
<style type="text/css">
	.st0{fill:#FFFFFF;stroke:#000000;stroke-miterlimit:10;}
	.st1{fill:#FFFFFF;stroke:#FFFFFF;stroke-miterlimit:10;}
</style>
<g id="Layer_5">
</g>
<g id="Layer_6">
</g>
<g id="Layer_7">
</g>
<g id="Layer_9">
</g>
<g id="Layer_8">
</g>
<g id="Layer_1">
</g>
<g id="Layer_10">
	<g>
		<rect x="518.8" y="420.53" class="st0" width="88.5" height="33.24"/>
		<path class="st0" d="M224.1,327.54c0,0,48.97,82.09,73.54,93.25c5.42,2.46,23.81,0,23.81,0v32.92c0,0-32.57,4.32-42.23,0.06
			C252.49,441.96,194,362.58,194,362.58L224.1,327.54z"/>
		<path class="st0" d="M894.81,323.15c0,0-48.97,82.09-73.54,93.25c-5.42,2.46-23.81,0-23.81,0v32.92c0,0,32.57,4.32,42.23,0.06
			c26.74-11.81,85.22-91.19,85.22-91.19L894.81,323.15z"/>
		<path class="st1" d="M795.05,665.33c28.93-33.09-2.16-44.64-21.15-27.85c-84.87,75.02-148.21,90.3-246.59,79.51
			c-24.63-2.7-32.34,22.01-5.97,30.1C583.25,766.07,716.89,754.73,795.05,665.33z"/>
		<g>
			<path class="st1" d="M625.58,319.31c-19.12,13.41-4.54,23.31,7.39,17.05c53.3-27.97,87.92-27.83,137.33-9.81
				c12.37,4.51,19.48-7.26,6.89-14.78C747.64,294.15,677.24,283.08,625.58,319.31z"/>
			<path class="st1" d="M500.52,319.31c19.12,13.41,4.54,23.31-7.39,17.05c-53.3-27.97-87.92-27.83-137.33-9.81
				c-12.37,4.51-19.48-7.26-6.89-14.78C378.45,294.15,448.86,283.08,500.52,319.31z"/>
		</g>
		<g>
			<path class="st1" d="M279.94,919.49c-47.81,0-84.36-13.33-109.64-39.95c-25.28-26.64-37.91-62.5-37.91-107.58V593.68
				c0-28-5.3-49.69-15.88-65.06c-10.59-15.36-25.11-26.28-43.55-32.78c-18.44-6.48-38.94-10.08-61.47-10.77v-43.03
				c22.53-0.67,43.03-4.25,61.47-10.75c18.44-6.48,32.95-17.41,43.55-32.78c10.58-15.38,15.88-36.72,15.88-64.05V156.18
				c0-46.44,12.62-82.47,37.91-108.09c25.28-25.61,61.83-38.42,109.64-38.42h67.62v44.06h-30.73c-30.06,0-51.59,9.06-64.56,27.16
				s-19.45,44.91-19.45,80.42v175.2c0,33.47-9.41,61.31-28.19,83.5c-18.78,22.2-47.3,36.38-85.55,42.53v1.02
				c38.94,6.84,67.63,21.19,86.06,43.05c18.44,21.86,27.67,49.86,27.67,84v177.27c0,34.83,6.48,61.47,19.45,79.92
				c12.97,18.42,34.5,27.66,64.56,27.66h30.73v44.05H279.94z"/>
		</g>
		<g>
			<path class="st1" d="M769.07,918.95v-43.98h30.69c30,0,51.48-9.22,64.45-27.62c12.97-18.42,19.45-45.03,19.45-79.81v-177
				c0-34.09,9.2-62.05,27.62-83.87c18.41-21.83,47.06-36.16,85.94-42.98v-1.02c-37.52-6.14-65.83-20.3-84.92-42.47
				c-19.09-22.16-28.64-49.95-28.64-83.38V161.86c0-35.47-6.48-62.23-19.45-80.31s-34.45-27.13-64.45-27.13h-30.69V10.44h67.53
				c48.42,0,85.08,12.8,109.98,38.38c24.89,25.58,37.34,61.55,37.34,107.92v178.03c0,27.28,5.45,48.59,16.36,63.94
				s25.41,26.27,43.48,32.73c18.06,6.48,38.36,10.06,60.88,10.75v42.97c-22.52,0.69-42.81,4.28-60.88,10.75
				c-18.08,6.48-32.58,17.39-43.48,32.73s-16.36,37-16.36,64.97v178.02c0,45.02-12.45,80.83-37.34,107.44
				c-24.91,26.58-61.56,39.89-109.98,39.89H769.07z"/>
		</g>
		<g>
			<g>
				<path class="st0" d="M323.3,395.78c10.36-19.52,43.98-26.91,67-29c66-6,144-3,136,75c-4.67,45.51-35.07,81.15-71,92
					c-6.06,1.83-48.85,12.41-88-12c-33.51-20.89-42-47-45-57C317.87,450.02,312.62,415.91,323.3,395.78z"/>
				<path d="M344.3,482.84c0,0-4.64-3.11-8.71-15.01c-9.06-26.48,11.19-90.51,11.25-90.54c6.16-2.72,16.16-6.23,27.07-7.79
					C373.91,369.5,333.72,439.99,344.3,482.84z"/>
				<path d="M358.53,479.97c-7.23-49.86,49.44-114.03,49.44-114.03c10.64-0.76,17.97-0.97,28.93-0.58c0,0-83.26,67.26-72.17,131.45
					C364.74,496.81,359.74,488.33,358.53,479.97z"/>
			</g>
			<g>
				<path class="st0" d="M800.57,395.84c-10.36-19.52-43.98-26.91-67-29c-66-6-144-3-136,75c4.67,45.51,35.07,81.15,71,92
					c6.06,1.83,48.85,12.41,88-12c33.51-20.89,42-47,45-57C805.99,450.08,811.25,415.97,800.57,395.84z"/>
				<path d="M779.23,482.29c0,0,4.64-3.11,8.71-15.01c9.06-26.48-11.29-89.99-11.35-90.02c-6.12-2.67-15.98-5.78-26.8-7.72
					C749.79,369.54,789.8,439.44,779.23,482.29z"/>
				<path d="M763.14,479.6c7.23-49.86-49.67-113.73-49.67-113.73c-10.64-0.7-17.76-0.71-28.66-0.37c0,0,83.22,66.76,72.13,130.94
					C756.93,496.45,761.93,487.97,763.14,479.6z"/>
			</g>
		</g>
	</g>
</g>
</svg>
